<svg xmlns="http://www.w3.org/2000/svg" version="1.1" xmlns:xlink="http://www.w3.org/1999/xlink" xmlns:svgjs="http://svgjs.dev/svgjs" width="2000" height="1149" viewBox="0 0 2000 1149"><g transform="matrix(1,0,0,1,-2.5407131498382114,-2.48151494186925)"><svg viewBox="0 0 87 50" data-background-color="#000000" preserveAspectRatio="xMidYMid meet" height="1149" width="2000" xmlns="http://www.w3.org/2000/svg" xmlns:xlink="http://www.w3.org/1999/xlink"><g id="tight-bounds" transform="matrix(1,0,0,1,0.11052102201796288,0.10798585473756361)"><svg viewBox="0 0 86.77895795596403 49.78402829052485" height="49.78402829052485" width="86.77895795596403"><g><svg viewBox="0 0 86.77895795596403 49.78402829052485" height="49.78402829052485" width="86.77895795596403"><g><svg viewBox="0 0 86.77895795596403 49.78402829052485" height="49.78402829052485" width="86.77895795596403"><g id="textblocktransform"><svg viewBox="0 0 86.77895795596403 49.78402829052485" height="49.78402829052485" width="86.77895795596403" id="textblock"><g><svg viewBox="0 0 86.77895795596403 49.78402829052485" height="49.78402829052485" width="86.77895795596403"><g><svg><g></g><g></g></svg></g><g><svg><g><svg></svg></g><g></g></svg></g><g id="text-0"><svg viewBox="0 0 86.77895795596403 49.78402829052485" height="49.78402829052485" width="86.77895795596403"><g transform="matrix(1,0,0,1,0,0)"><svg width="33.26689740908903" viewBox="2.81 -36.06 24.44 36.57" height="49.78402829052485" data-palette-color="url(#7015f10e-ce89-40d9-90ae-e1c5fb99885c)"></svg></g><g><svg xmlns="http://www.w3.org/2000/svg" xmlns:xlink="http://www.w3.org/1999/xlink" version="1.1" x="47.237502877839034" y="0" viewBox="13.56546444083714 4.994840331685844 72.27777360619697 91.00015967742394" enable-background="new 0 0 100 100" xml:space="preserve" height="49.78402829052485" width="39.541455078125" class="icon-dxe-0" data-fill-palette-color="accent" id="dxe-0"></svg></g></svg></g></svg></g></svg></g></svg></g><g></g></svg></g><defs></defs><mask id="31520bbe-7dcd-4619-9a3a-00fbed08698d"><g id="SvgjsG1440"><svg viewBox="0 0 86.77895795596403 49.78402829052485" height="49.78402829052485" width="86.77895795596403"><g><svg viewBox="0 0 86.77895795596403 49.78402829052485" height="49.78402829052485" width="86.77895795596403"><g><svg viewBox="0 0 86.77895795596403 49.78402829052485" height="49.78402829052485" width="86.77895795596403"><g id="SvgjsG1439"><svg viewBox="0 0 86.77895795596403 49.78402829052485" height="49.78402829052485" width="86.77895795596403" id="SvgjsSvg1438"><g><svg viewBox="0 0 86.77895795596403 49.78402829052485" height="49.78402829052485" width="86.77895795596403"><g><svg><g></g><g></g></svg></g><g><svg><g><svg></svg></g><g></g></svg></g><g id="SvgjsG1437"><svg viewBox="0 0 86.77895795596403 49.78402829052485" height="49.78402829052485" width="86.77895795596403"><g transform="matrix(1,0,0,1,0,0)"><svg width="33.26689740908903" viewBox="2.81 -36.06 24.44 36.57" height="49.78402829052485" data-palette-color="url(#7015f10e-ce89-40d9-90ae-e1c5fb99885c)"><path d="M14.79 0.51L14.79 0.51Q11.55 0.51 8.54-0.44 5.54-1.39 2.81-3.37L2.81-3.37 2.81-10.96 6.54-10.96 7.35-5.37Q8.94-4.39 10.79-3.86 12.65-3.32 14.79-3.32L14.79-3.32Q17.26-3.32 18.95-4.08L18.95-4.08Q22.44-5.59 22.44-9.2L22.44-9.2Q22.44-10.82 21.66-12.08L21.66-12.08Q20.87-13.33 19.08-14.27 17.29-15.21 14.18-15.92L14.18-15.92Q10.62-16.75 8.01-18.21L8.01-18.21Q2.86-21.12 2.86-26.34L2.86-26.34Q2.86-29.15 4.35-31.32L4.35-31.32Q5.81-33.52 8.45-34.79 11.08-36.06 14.6-36.06L14.6-36.06Q18.33-36.06 21.2-34.92 24.07-33.79 25.93-32.18L25.93-32.18 25.93-25.07 22.19-25.07 21.39-30.15Q20.29-31.03 18.65-31.62 17.02-32.2 14.6-32.2L14.6-32.2Q12.6-32.2 10.99-31.49L10.99-31.49Q9.42-30.76 8.54-29.47 7.67-28.17 7.67-26.42L7.67-26.42Q7.67-24.88 8.47-23.73L8.47-23.73Q9.94-21.56 15.84-20.09L15.84-20.09Q27.25-17.26 27.25-9.25L27.25-9.25Q27.25-6.4 25.71-4.2L25.71-4.2Q24.17-1.98 21.37-0.73 18.58 0.51 14.79 0.51Z" opacity="1" transform="matrix(1,0,0,1,0,0)" fill="white" class="wordmark-text-0"></path></svg></g><g><svg xmlns="http://www.w3.org/2000/svg" xmlns:xlink="http://www.w3.org/1999/xlink" version="1.1" x="47.237502877839034" y="0" viewBox="13.56546444083714 4.994840331685844 72.27777360619697 91.00015967742394" enable-background="new 0 0 100 100" xml:space="preserve" height="49.78402829052485" width="39.541455078125" class="icon-dxe-0" data-fill-palette-color="accent" id="SvgjsSvg1436"><path d="M17.101 95.995A1 1 0 0 1 16.252 94.469C16.338 94.33 24.87 80.451 24.642 73.501 24.408 66.359 22.453 58.766 19.886 55.033 17.195 51.117 13.327 41.949 13.577 34.709 13.846 26.885 20.547 4.606 46.94 5 58.82 5.164 73.829 8.904 77.864 25.793L77.963 26.202C78.163 27 78.39 27.771 78.611 28.522 79.346 31.019 80.041 33.377 79.537 35.901 78.988 38.646 79.101 38.945 80.501 41.333 80.869 41.96 81.489 42.846 82.146 43.782 84.246 46.778 85.739 49.021 85.832 50.607 86.003 53.512 84.192 54.363 82.481 54.934 82.024 55.086 81.44 55.36 81.252 55.796 81.127 56.084 81.174 56.466 81.39 56.934 81.927 58.097 81.764 59.034 81.533 59.614A3.27 3.27 0 0 1 80.535 60.948C81.085 62.07 81.185 63.356 79.746 64.796 79.032 65.509 79.163 65.855 79.399 66.482 79.438 66.585 79.475 66.683 79.506 66.778 79.874 67.885 80.298 72.499 77.46 73.994 76.263 74.624 73.985 74.916 71.349 75.254 68.835 75.576 65.706 75.977 64.877 76.651 63.096 78.097 62.307 81.108 62.866 84.322 63.138 85.891 62.78 87.197 62.365 88.709 61.948 90.227 61.476 91.945 61.437 94.531 61.428 95.084 60.982 95.489 60.422 95.516A1 1 0 0 1 59.437 94.501C59.48 91.66 60.01 89.73 60.436 88.179 60.816 86.793 61.091 85.792 60.895 84.664 60.213 80.749 61.282 76.993 63.615 75.098 64.886 74.065 67.902 73.678 71.094 73.269 73.23 72.996 75.651 72.685 76.528 72.224 78.153 71.369 77.78 67.925 77.608 67.411L77.527 67.188C77.24 66.426 76.704 65.007 78.331 63.382 79.107 62.605 79.109 62.275 78.339 61.174L77.615 60.14 78.787 59.672C79.217 59.5 79.54 59.209 79.674 58.874 79.8 58.56 79.766 58.188 79.573 57.772 78.995 56.519 79.169 55.575 79.416 55.002 79.803 54.107 80.621 53.446 81.849 53.037 83.542 52.472 83.913 52.04 83.836 50.724 83.769 49.582 81.807 46.782 80.509 44.93 79.828 43.959 79.186 43.042 78.778 42.345 77.153 39.573 76.917 38.815 77.578 35.51 77.985 33.47 77.388 31.44 76.694 29.089A59 59 0 0 1 76.025 26.689L75.921 26.259C72.92 13.703 63.16 7.224 46.913 7A45 45 0 0 0 46.276 6.996C17.347 6.996 15.584 34.498 15.574 34.778 15.341 41.569 18.992 50.203 21.533 53.901 24.294 57.917 26.393 65.95 26.638 73.435 26.887 80.988 18.317 94.932 17.951 95.522A1 1 0 0 1 17.101 95.995" fill="black"></path><path d="M50 57H44A1 1 0 1 1 44 55H50A1 1 0 1 1 50 57" fill="black"></path><path d="M50.604 58.718A1.14 1.14 0 0 0 49.557 58H44.444C43.983 58 43.572 58.291 43.397 58.718 43.222 59.144 43.321 59.637 43.635 59.947L45.16 61.556C45.411 61.81 45.758 62 46.113 62H47.886C48.241 62 48.588 61.814 48.842 61.556L50.352 59.98C50.68 59.657 50.778 59.144 50.604 58.718" fill="black"></path><path d="M47 20A1 1 0 0 1 46 19V15A1 1 0 1 1 48 15V19A1 1 0 0 1 47 20" fill="black"></path><path d="M39.609 21.914A1 1 0 0 1 38.742 21.414L36.742 17.95A1 1 0 0 1 38.474 16.95L40.474 20.414A1 1 0 0 1 39.609 21.914" fill="black"></path><path d="M34.163 27.267A1 1 0 0 1 33.664 27.133L30.199 25.133A1 1 0 0 1 31.199 23.401L34.664 25.401A0.999 0.999 0 0 1 34.163 27.267" fill="black"></path><path d="M32 35H28A1 1 0 1 1 28 33H32A1 1 0 1 1 32 35" fill="black"></path><path d="M30.654 44.404A1 1 0 0 1 30.153 42.538L33.618 40.538A1 1 0 1 1 34.618 42.27L31.153 44.27A1 1 0 0 1 30.654 44.404" fill="black"></path><path d="M63.607 44.267A1 1 0 0 1 63.108 44.133L59.644 42.133A1 1 0 0 1 59.278 40.767 1 1 0 0 1 60.644 40.401L64.108 42.401A0.999 0.999 0 0 1 63.607 44.267" fill="black"></path><path d="M66 35H62A1 1 0 1 1 62 33H66A1 1 0 1 1 66 35" fill="black"></path><path d="M60.1 27.404A1 1 0 0 1 59.599 25.538L63.063 23.538A1 1 0 1 1 64.063 25.27L60.599 27.27A1 1 0 0 1 60.1 27.404" fill="black"></path><path d="M54.653 21.776A0.999 0.999 0 0 1 53.788 20.276L55.788 16.812A0.999 0.999 0 1 1 57.52 17.812L55.52 21.276A1 1 0 0 1 54.653 21.776" fill="black"></path><path d="M54.841 25.362C52.766 23.299 50.015 22 47.091 22H47.056C44.118 22 41.361 23.326 39.29 25.41S36.084 30.423 36.094 33.36C36.101 35.552 36.719 37.046 36.845 37.328 36.851 37.344 38.035 40.105 38.557 41.273 39.596 43.595 40.416 45.48 40.911 47.109 41.168 47.951 41.622 50.628 41.781 51.582 42.039 52.867 43.176 54 44.485 54H49.781C51.095 53.995 52.226 52.783 52.482 51.46 52.629 50.537 53.1 47.812 53.351 46.968 53.836 45.336 54.646 43.495 55.671 41.164 56.186 39.994 57.355 37.229 57.364 37.2 57.682 36.419 58.09 35.132 58.084 33.209 58.076 30.272 56.924 27.432 54.841 25.362M47.628 51.991L46.599 51.994C46.595 46.843 45.326 42.592 44.294 39.98 44.362 39.987 44.425 40 44.498 40 45.678 40 46.253 39.08 46.597 38.53 46.71 38.348 46.9 38.045 47.004 37.999 47.097 38.045 47.286 38.349 47.4 38.531 47.744 39.081 48.319 40.001 49.499 40.001 49.532 40.001 49.559 39.993 49.591 39.992 48.666 42.678 47.628 46.842 47.628 51.991M55.5 36.511C55.494 36.525 54.348 39.23 53.842 40.382 52.788 42.778 51.955 44.695 51.434 46.448 51.095 47.589 50.563 50.965 50.546 51.073 50.477 51.429 50.158 52 49.797 52H49.609S49.25 44.404 52.87 37.496C53.019 37.211 53.033 36.845 52.89 36.556A1.01 1.01 0 0 0 52 36C50.82 36 50.245 36.92 49.901 37.47 49.787 37.652 49.597 37.956 49.491 38.002 49.398 37.956 49.209 37.652 49.095 37.47 48.751 36.92 48.176 36 46.996 36 45.817 36 45.242 36.92 44.899 37.47 44.785 37.652 44.595 37.956 44.492 38.002 44.399 37.955 44.211 37.652 44.097 37.471 43.754 36.921 43.18 36 42 36 41.643 36 41.29 36.234 41.127 36.547 40.978 36.834 40.972 37.232 41.137 37.516 41.17 37.573 44.594 44 44.599 52H44.486C44.126 52 43.813 51.543 43.748 51.221 43.725 51.08 43.172 47.565 42.825 46.426 42.293 44.677 41.45 42.794 40.382 40.408 39.866 39.256 38.891 36.982 38.677 36.487 38.672 36.475 38.1 35.181 38.094 33.27 38.086 30.868 39.015 28.523 40.709 26.819 42.402 25.115 44.659 24 47.062 24H47.091C49.483 24 51.734 25.091 53.431 26.778 55.135 28.472 56.078 30.89 56.085 33.293 56.09 34.89 55.753 35.893 55.5 36.511" fill="black"></path></svg></g></svg></g></svg></g></svg></g></svg></g><g></g></svg></g><defs><mask></mask></defs></svg><rect width="86.77895795596403" height="49.78402829052485" fill="black" stroke="none" visibility="hidden"></rect></g></mask><linearGradient x1="0.054" x2="0.941" y1="0.5" y2="0.5" id="7015f10e-ce89-40d9-90ae-e1c5fb99885c"><stop stop-color="#9c7945" offset="0"></stop><stop stop-color="#faf3aa" offset="0.498"></stop><stop stop-color="#9c7945" offset="1"></stop></linearGradient><rect width="86.77895795596403" height="49.78402829052485" fill="url(#7015f10e-ce89-40d9-90ae-e1c5fb99885c)" mask="url(#31520bbe-7dcd-4619-9a3a-00fbed08698d)" data-fill-palette-color="primary"></rect><mask id="5e58ef74-b1ed-4199-bb5e-f992896913d3"><g id="SvgjsG1461"><svg viewBox="0 0 86.77895795596403 49.78402829052485" height="49.78402829052485" width="86.77895795596403"><g><svg viewBox="0 0 86.77895795596403 49.78402829052485" height="49.78402829052485" width="86.77895795596403"><g><svg viewBox="0 0 86.77895795596403 49.78402829052485" height="49.78402829052485" width="86.77895795596403"><g id="SvgjsG1460"><svg viewBox="0 0 86.77895795596403 49.78402829052485" height="49.78402829052485" width="86.77895795596403" id="SvgjsSvg1459"><g><svg viewBox="0 0 86.77895795596403 49.78402829052485" height="49.78402829052485" width="86.77895795596403"><g><svg><g></g><g></g></svg></g><g><svg><g><svg></svg></g><g></g></svg></g><g id="SvgjsG1458"><svg viewBox="0 0 86.77895795596403 49.78402829052485" height="49.78402829052485" width="86.77895795596403"><g transform="matrix(1,0,0,1,0,0)"><svg width="33.26689740908903" viewBox="2.81 -36.06 24.44 36.57" height="49.78402829052485" data-palette-color="url(#7015f10e-ce89-40d9-90ae-e1c5fb99885c)"></svg></g><g><svg xmlns="http://www.w3.org/2000/svg" xmlns:xlink="http://www.w3.org/1999/xlink" version="1.1" x="47.237502877839034" y="0" viewBox="13.56546444083714 4.994840331685844 72.27777360619697 91.00015967742394" enable-background="new 0 0 100 100" xml:space="preserve" height="49.78402829052485" width="39.541455078125" class="icon-dxe-0" data-fill-palette-color="accent" id="SvgjsSvg1457"><path d="M17.101 95.995A1 1 0 0 1 16.252 94.469C16.338 94.33 24.87 80.451 24.642 73.501 24.408 66.359 22.453 58.766 19.886 55.033 17.195 51.117 13.327 41.949 13.577 34.709 13.846 26.885 20.547 4.606 46.94 5 58.82 5.164 73.829 8.904 77.864 25.793L77.963 26.202C78.163 27 78.39 27.771 78.611 28.522 79.346 31.019 80.041 33.377 79.537 35.901 78.988 38.646 79.101 38.945 80.501 41.333 80.869 41.96 81.489 42.846 82.146 43.782 84.246 46.778 85.739 49.021 85.832 50.607 86.003 53.512 84.192 54.363 82.481 54.934 82.024 55.086 81.44 55.36 81.252 55.796 81.127 56.084 81.174 56.466 81.39 56.934 81.927 58.097 81.764 59.034 81.533 59.614A3.27 3.27 0 0 1 80.535 60.948C81.085 62.07 81.185 63.356 79.746 64.796 79.032 65.509 79.163 65.855 79.399 66.482 79.438 66.585 79.475 66.683 79.506 66.778 79.874 67.885 80.298 72.499 77.46 73.994 76.263 74.624 73.985 74.916 71.349 75.254 68.835 75.576 65.706 75.977 64.877 76.651 63.096 78.097 62.307 81.108 62.866 84.322 63.138 85.891 62.78 87.197 62.365 88.709 61.948 90.227 61.476 91.945 61.437 94.531 61.428 95.084 60.982 95.489 60.422 95.516A1 1 0 0 1 59.437 94.501C59.48 91.66 60.01 89.73 60.436 88.179 60.816 86.793 61.091 85.792 60.895 84.664 60.213 80.749 61.282 76.993 63.615 75.098 64.886 74.065 67.902 73.678 71.094 73.269 73.23 72.996 75.651 72.685 76.528 72.224 78.153 71.369 77.78 67.925 77.608 67.411L77.527 67.188C77.24 66.426 76.704 65.007 78.331 63.382 79.107 62.605 79.109 62.275 78.339 61.174L77.615 60.14 78.787 59.672C79.217 59.5 79.54 59.209 79.674 58.874 79.8 58.56 79.766 58.188 79.573 57.772 78.995 56.519 79.169 55.575 79.416 55.002 79.803 54.107 80.621 53.446 81.849 53.037 83.542 52.472 83.913 52.04 83.836 50.724 83.769 49.582 81.807 46.782 80.509 44.93 79.828 43.959 79.186 43.042 78.778 42.345 77.153 39.573 76.917 38.815 77.578 35.51 77.985 33.47 77.388 31.44 76.694 29.089A59 59 0 0 1 76.025 26.689L75.921 26.259C72.92 13.703 63.16 7.224 46.913 7A45 45 0 0 0 46.276 6.996C17.347 6.996 15.584 34.498 15.574 34.778 15.341 41.569 18.992 50.203 21.533 53.901 24.294 57.917 26.393 65.95 26.638 73.435 26.887 80.988 18.317 94.932 17.951 95.522A1 1 0 0 1 17.101 95.995" fill="white"></path><path d="M50 57H44A1 1 0 1 1 44 55H50A1 1 0 1 1 50 57" fill="white"></path><path d="M50.604 58.718A1.14 1.14 0 0 0 49.557 58H44.444C43.983 58 43.572 58.291 43.397 58.718 43.222 59.144 43.321 59.637 43.635 59.947L45.16 61.556C45.411 61.81 45.758 62 46.113 62H47.886C48.241 62 48.588 61.814 48.842 61.556L50.352 59.98C50.68 59.657 50.778 59.144 50.604 58.718" fill="white"></path><path d="M47 20A1 1 0 0 1 46 19V15A1 1 0 1 1 48 15V19A1 1 0 0 1 47 20" fill="white"></path><path d="M39.609 21.914A1 1 0 0 1 38.742 21.414L36.742 17.95A1 1 0 0 1 38.474 16.95L40.474 20.414A1 1 0 0 1 39.609 21.914" fill="white"></path><path d="M34.163 27.267A1 1 0 0 1 33.664 27.133L30.199 25.133A1 1 0 0 1 31.199 23.401L34.664 25.401A0.999 0.999 0 0 1 34.163 27.267" fill="white"></path><path d="M32 35H28A1 1 0 1 1 28 33H32A1 1 0 1 1 32 35" fill="white"></path><path d="M30.654 44.404A1 1 0 0 1 30.153 42.538L33.618 40.538A1 1 0 1 1 34.618 42.27L31.153 44.27A1 1 0 0 1 30.654 44.404" fill="white"></path><path d="M63.607 44.267A1 1 0 0 1 63.108 44.133L59.644 42.133A1 1 0 0 1 59.278 40.767 1 1 0 0 1 60.644 40.401L64.108 42.401A0.999 0.999 0 0 1 63.607 44.267" fill="white"></path><path d="M66 35H62A1 1 0 1 1 62 33H66A1 1 0 1 1 66 35" fill="white"></path><path d="M60.1 27.404A1 1 0 0 1 59.599 25.538L63.063 23.538A1 1 0 1 1 64.063 25.27L60.599 27.27A1 1 0 0 1 60.1 27.404" fill="white"></path><path d="M54.653 21.776A0.999 0.999 0 0 1 53.788 20.276L55.788 16.812A0.999 0.999 0 1 1 57.52 17.812L55.52 21.276A1 1 0 0 1 54.653 21.776" fill="white"></path><path d="M54.841 25.362C52.766 23.299 50.015 22 47.091 22H47.056C44.118 22 41.361 23.326 39.29 25.41S36.084 30.423 36.094 33.36C36.101 35.552 36.719 37.046 36.845 37.328 36.851 37.344 38.035 40.105 38.557 41.273 39.596 43.595 40.416 45.48 40.911 47.109 41.168 47.951 41.622 50.628 41.781 51.582 42.039 52.867 43.176 54 44.485 54H49.781C51.095 53.995 52.226 52.783 52.482 51.46 52.629 50.537 53.1 47.812 53.351 46.968 53.836 45.336 54.646 43.495 55.671 41.164 56.186 39.994 57.355 37.229 57.364 37.2 57.682 36.419 58.09 35.132 58.084 33.209 58.076 30.272 56.924 27.432 54.841 25.362M47.628 51.991L46.599 51.994C46.595 46.843 45.326 42.592 44.294 39.98 44.362 39.987 44.425 40 44.498 40 45.678 40 46.253 39.08 46.597 38.53 46.71 38.348 46.9 38.045 47.004 37.999 47.097 38.045 47.286 38.349 47.4 38.531 47.744 39.081 48.319 40.001 49.499 40.001 49.532 40.001 49.559 39.993 49.591 39.992 48.666 42.678 47.628 46.842 47.628 51.991M55.5 36.511C55.494 36.525 54.348 39.23 53.842 40.382 52.788 42.778 51.955 44.695 51.434 46.448 51.095 47.589 50.563 50.965 50.546 51.073 50.477 51.429 50.158 52 49.797 52H49.609S49.25 44.404 52.87 37.496C53.019 37.211 53.033 36.845 52.89 36.556A1.01 1.01 0 0 0 52 36C50.82 36 50.245 36.92 49.901 37.47 49.787 37.652 49.597 37.956 49.491 38.002 49.398 37.956 49.209 37.652 49.095 37.47 48.751 36.92 48.176 36 46.996 36 45.817 36 45.242 36.92 44.899 37.47 44.785 37.652 44.595 37.956 44.492 38.002 44.399 37.955 44.211 37.652 44.097 37.471 43.754 36.921 43.18 36 42 36 41.643 36 41.29 36.234 41.127 36.547 40.978 36.834 40.972 37.232 41.137 37.516 41.17 37.573 44.594 44 44.599 52H44.486C44.126 52 43.813 51.543 43.748 51.221 43.725 51.08 43.172 47.565 42.825 46.426 42.293 44.677 41.45 42.794 40.382 40.408 39.866 39.256 38.891 36.982 38.677 36.487 38.672 36.475 38.1 35.181 38.094 33.27 38.086 30.868 39.015 28.523 40.709 26.819 42.402 25.115 44.659 24 47.062 24H47.091C49.483 24 51.734 25.091 53.431 26.778 55.135 28.472 56.078 30.89 56.085 33.293 56.09 34.89 55.753 35.893 55.5 36.511" fill="white"></path></svg></g></svg></g></svg></g></svg></g></svg></g><g></g></svg></g><defs><mask></mask></defs><mask><g id="SvgjsG1456"><svg viewBox="0 0 86.77895795596403 49.78402829052485" height="49.78402829052485" width="86.77895795596403"><g><svg viewBox="0 0 86.77895795596403 49.78402829052485" height="49.78402829052485" width="86.77895795596403"><g><svg viewBox="0 0 86.77895795596403 49.78402829052485" height="49.78402829052485" width="86.77895795596403"><g id="SvgjsG1455"><svg viewBox="0 0 86.77895795596403 49.78402829052485" height="49.78402829052485" width="86.77895795596403" id="SvgjsSvg1454"><g><svg viewBox="0 0 86.77895795596403 49.78402829052485" height="49.78402829052485" width="86.77895795596403"><g><svg><g></g><g></g></svg></g><g><svg><g><svg></svg></g><g></g></svg></g><g id="SvgjsG1453"><svg viewBox="0 0 86.77895795596403 49.78402829052485" height="49.78402829052485" width="86.77895795596403"><g transform="matrix(1,0,0,1,0,0)"><svg width="33.26689740908903" viewBox="2.81 -36.06 24.44 36.57" height="49.78402829052485" data-palette-color="url(#7015f10e-ce89-40d9-90ae-e1c5fb99885c)"><path d="M14.79 0.51L14.79 0.51Q11.55 0.51 8.54-0.44 5.54-1.39 2.81-3.37L2.81-3.37 2.81-10.96 6.54-10.96 7.35-5.37Q8.94-4.39 10.79-3.86 12.65-3.32 14.79-3.32L14.79-3.32Q17.26-3.32 18.95-4.08L18.95-4.08Q22.44-5.59 22.44-9.2L22.44-9.2Q22.44-10.82 21.66-12.08L21.66-12.08Q20.87-13.33 19.08-14.27 17.29-15.21 14.18-15.92L14.18-15.92Q10.62-16.75 8.01-18.21L8.01-18.21Q2.86-21.12 2.86-26.34L2.86-26.34Q2.86-29.15 4.35-31.32L4.35-31.32Q5.81-33.52 8.45-34.79 11.08-36.06 14.6-36.06L14.6-36.06Q18.33-36.06 21.2-34.92 24.07-33.79 25.93-32.18L25.93-32.18 25.93-25.07 22.19-25.07 21.39-30.15Q20.29-31.03 18.65-31.62 17.02-32.2 14.6-32.2L14.6-32.2Q12.6-32.2 10.99-31.49L10.99-31.49Q9.42-30.76 8.54-29.47 7.67-28.17 7.67-26.42L7.67-26.42Q7.67-24.88 8.47-23.73L8.47-23.73Q9.94-21.56 15.84-20.09L15.84-20.09Q27.25-17.26 27.25-9.25L27.25-9.25Q27.25-6.4 25.71-4.2L25.71-4.2Q24.17-1.98 21.37-0.73 18.58 0.51 14.79 0.51Z" opacity="1" transform="matrix(1,0,0,1,0,0)" fill="black" class="wordmark-text-0"></path></svg></g><g><svg xmlns="http://www.w3.org/2000/svg" xmlns:xlink="http://www.w3.org/1999/xlink" version="1.1" x="47.237502877839034" y="0" viewBox="13.56546444083714 4.994840331685844 72.27777360619697 91.00015967742394" enable-background="new 0 0 100 100" xml:space="preserve" height="49.78402829052485" width="39.541455078125" class="icon-dxe-0" data-fill-palette-color="accent" id="SvgjsSvg1452"><path d="M17.101 95.995A1 1 0 0 1 16.252 94.469C16.338 94.33 24.87 80.451 24.642 73.501 24.408 66.359 22.453 58.766 19.886 55.033 17.195 51.117 13.327 41.949 13.577 34.709 13.846 26.885 20.547 4.606 46.94 5 58.82 5.164 73.829 8.904 77.864 25.793L77.963 26.202C78.163 27 78.39 27.771 78.611 28.522 79.346 31.019 80.041 33.377 79.537 35.901 78.988 38.646 79.101 38.945 80.501 41.333 80.869 41.96 81.489 42.846 82.146 43.782 84.246 46.778 85.739 49.021 85.832 50.607 86.003 53.512 84.192 54.363 82.481 54.934 82.024 55.086 81.44 55.36 81.252 55.796 81.127 56.084 81.174 56.466 81.39 56.934 81.927 58.097 81.764 59.034 81.533 59.614A3.27 3.27 0 0 1 80.535 60.948C81.085 62.07 81.185 63.356 79.746 64.796 79.032 65.509 79.163 65.855 79.399 66.482 79.438 66.585 79.475 66.683 79.506 66.778 79.874 67.885 80.298 72.499 77.46 73.994 76.263 74.624 73.985 74.916 71.349 75.254 68.835 75.576 65.706 75.977 64.877 76.651 63.096 78.097 62.307 81.108 62.866 84.322 63.138 85.891 62.78 87.197 62.365 88.709 61.948 90.227 61.476 91.945 61.437 94.531 61.428 95.084 60.982 95.489 60.422 95.516A1 1 0 0 1 59.437 94.501C59.48 91.66 60.01 89.73 60.436 88.179 60.816 86.793 61.091 85.792 60.895 84.664 60.213 80.749 61.282 76.993 63.615 75.098 64.886 74.065 67.902 73.678 71.094 73.269 73.23 72.996 75.651 72.685 76.528 72.224 78.153 71.369 77.78 67.925 77.608 67.411L77.527 67.188C77.24 66.426 76.704 65.007 78.331 63.382 79.107 62.605 79.109 62.275 78.339 61.174L77.615 60.14 78.787 59.672C79.217 59.5 79.54 59.209 79.674 58.874 79.8 58.56 79.766 58.188 79.573 57.772 78.995 56.519 79.169 55.575 79.416 55.002 79.803 54.107 80.621 53.446 81.849 53.037 83.542 52.472 83.913 52.04 83.836 50.724 83.769 49.582 81.807 46.782 80.509 44.93 79.828 43.959 79.186 43.042 78.778 42.345 77.153 39.573 76.917 38.815 77.578 35.51 77.985 33.47 77.388 31.44 76.694 29.089A59 59 0 0 1 76.025 26.689L75.921 26.259C72.92 13.703 63.16 7.224 46.913 7A45 45 0 0 0 46.276 6.996C17.347 6.996 15.584 34.498 15.574 34.778 15.341 41.569 18.992 50.203 21.533 53.901 24.294 57.917 26.393 65.95 26.638 73.435 26.887 80.988 18.317 94.932 17.951 95.522A1 1 0 0 1 17.101 95.995" fill="black"></path><path d="M50 57H44A1 1 0 1 1 44 55H50A1 1 0 1 1 50 57" fill="black"></path><path d="M50.604 58.718A1.14 1.14 0 0 0 49.557 58H44.444C43.983 58 43.572 58.291 43.397 58.718 43.222 59.144 43.321 59.637 43.635 59.947L45.16 61.556C45.411 61.81 45.758 62 46.113 62H47.886C48.241 62 48.588 61.814 48.842 61.556L50.352 59.98C50.68 59.657 50.778 59.144 50.604 58.718" fill="black"></path><path d="M47 20A1 1 0 0 1 46 19V15A1 1 0 1 1 48 15V19A1 1 0 0 1 47 20" fill="black"></path><path d="M39.609 21.914A1 1 0 0 1 38.742 21.414L36.742 17.95A1 1 0 0 1 38.474 16.95L40.474 20.414A1 1 0 0 1 39.609 21.914" fill="black"></path><path d="M34.163 27.267A1 1 0 0 1 33.664 27.133L30.199 25.133A1 1 0 0 1 31.199 23.401L34.664 25.401A0.999 0.999 0 0 1 34.163 27.267" fill="black"></path><path d="M32 35H28A1 1 0 1 1 28 33H32A1 1 0 1 1 32 35" fill="black"></path><path d="M30.654 44.404A1 1 0 0 1 30.153 42.538L33.618 40.538A1 1 0 1 1 34.618 42.27L31.153 44.27A1 1 0 0 1 30.654 44.404" fill="black"></path><path d="M63.607 44.267A1 1 0 0 1 63.108 44.133L59.644 42.133A1 1 0 0 1 59.278 40.767 1 1 0 0 1 60.644 40.401L64.108 42.401A0.999 0.999 0 0 1 63.607 44.267" fill="black"></path><path d="M66 35H62A1 1 0 1 1 62 33H66A1 1 0 1 1 66 35" fill="black"></path><path d="M60.1 27.404A1 1 0 0 1 59.599 25.538L63.063 23.538A1 1 0 1 1 64.063 25.27L60.599 27.27A1 1 0 0 1 60.1 27.404" fill="black"></path><path d="M54.653 21.776A0.999 0.999 0 0 1 53.788 20.276L55.788 16.812A0.999 0.999 0 1 1 57.52 17.812L55.52 21.276A1 1 0 0 1 54.653 21.776" fill="black"></path><path d="M54.841 25.362C52.766 23.299 50.015 22 47.091 22H47.056C44.118 22 41.361 23.326 39.29 25.41S36.084 30.423 36.094 33.36C36.101 35.552 36.719 37.046 36.845 37.328 36.851 37.344 38.035 40.105 38.557 41.273 39.596 43.595 40.416 45.48 40.911 47.109 41.168 47.951 41.622 50.628 41.781 51.582 42.039 52.867 43.176 54 44.485 54H49.781C51.095 53.995 52.226 52.783 52.482 51.46 52.629 50.537 53.1 47.812 53.351 46.968 53.836 45.336 54.646 43.495 55.671 41.164 56.186 39.994 57.355 37.229 57.364 37.2 57.682 36.419 58.09 35.132 58.084 33.209 58.076 30.272 56.924 27.432 54.841 25.362M47.628 51.991L46.599 51.994C46.595 46.843 45.326 42.592 44.294 39.98 44.362 39.987 44.425 40 44.498 40 45.678 40 46.253 39.08 46.597 38.53 46.71 38.348 46.9 38.045 47.004 37.999 47.097 38.045 47.286 38.349 47.4 38.531 47.744 39.081 48.319 40.001 49.499 40.001 49.532 40.001 49.559 39.993 49.591 39.992 48.666 42.678 47.628 46.842 47.628 51.991M55.5 36.511C55.494 36.525 54.348 39.23 53.842 40.382 52.788 42.778 51.955 44.695 51.434 46.448 51.095 47.589 50.563 50.965 50.546 51.073 50.477 51.429 50.158 52 49.797 52H49.609S49.25 44.404 52.87 37.496C53.019 37.211 53.033 36.845 52.89 36.556A1.01 1.01 0 0 0 52 36C50.82 36 50.245 36.92 49.901 37.47 49.787 37.652 49.597 37.956 49.491 38.002 49.398 37.956 49.209 37.652 49.095 37.47 48.751 36.92 48.176 36 46.996 36 45.817 36 45.242 36.92 44.899 37.47 44.785 37.652 44.595 37.956 44.492 38.002 44.399 37.955 44.211 37.652 44.097 37.471 43.754 36.921 43.18 36 42 36 41.643 36 41.29 36.234 41.127 36.547 40.978 36.834 40.972 37.232 41.137 37.516 41.17 37.573 44.594 44 44.599 52H44.486C44.126 52 43.813 51.543 43.748 51.221 43.725 51.08 43.172 47.565 42.825 46.426 42.293 44.677 41.45 42.794 40.382 40.408 39.866 39.256 38.891 36.982 38.677 36.487 38.672 36.475 38.1 35.181 38.094 33.27 38.086 30.868 39.015 28.523 40.709 26.819 42.402 25.115 44.659 24 47.062 24H47.091C49.483 24 51.734 25.091 53.431 26.778 55.135 28.472 56.078 30.89 56.085 33.293 56.09 34.89 55.753 35.893 55.5 36.511" fill="black"></path></svg></g></svg></g></svg></g></svg></g></svg></g><g></g></svg></g><defs><mask></mask></defs></svg><rect width="86.77895795596403" height="49.78402829052485" fill="black" stroke="none" visibility="hidden"></rect></g></mask></svg><rect width="86.77895795596403" height="49.78402829052485" fill="black" stroke="none" visibility="hidden"></rect></g></mask><linearGradient x1="0.054" x2="0.941" y1="0.5" y2="0.5" id="6a72f55c-e13e-41ad-bf0b-45abc85d4f57"><stop stop-color="#9c7945" offset="0"></stop><stop stop-color="#faf3aa" offset="0.498"></stop><stop stop-color="#9c7945" offset="1"></stop></linearGradient><rect width="86.77895795596403" height="49.78402829052485" fill="url(#6a72f55c-e13e-41ad-bf0b-45abc85d4f57)" mask="url(#5e58ef74-b1ed-4199-bb5e-f992896913d3)" data-fill-palette-color="accent"></rect></svg><rect width="86.77895795596403" height="49.78402829052485" fill="none" stroke="none" visibility="hidden"></rect></g></svg></g></svg>